<?xml version="1.0" encoding="UTF-8"?>
<svg viewBox="0 0 44 44" version="1.1" xmlns="http://www.w3.org/2000/svg" xmlns:xlink="http://www.w3.org/1999/xlink">
    <defs>
        <circle id="path-1" cx="21" cy="21" r="21"></circle>
    </defs>
    <g id="Page-1" stroke="none" stroke-width="1" fill="none" fill-rule="evenodd">
        <g>
            <g>
                <g>
                    <g id="Oval">
                        <use fill="black" fill-opacity="1" xlink:href="#path-1"></use>
                        <use fill="#FFFFFF" fill-rule="evenodd" xlink:href="#path-1"></use>
                    </g>
                </g>
                <path transform="scale(1.12)" d="M24.1714286,13.8285714 C24.342858,14.0000009 24.4285714,14.2142844 24.4285714,14.4714286 C24.4285714,14.7285727 24.342858,14.9428563 24.1714286,15.1142857 L20.2857143,19 L24.1714286,22.8857143 C24.342858,23.0571437 24.4285714,23.2714273 24.4285714,23.5285714 C24.4285714,23.7857156 24.342858,23.9999991 24.1714286,24.1714286 C23.9999991,24.342858 23.7857156,24.4285714 23.5285714,24.4285714 C23.2714273,24.4285714 23.0571437,24.342858 22.8857143,24.1714286 L19,20.2857143 L15.1142857,24.1714286 C14.9428563,24.342858 14.7285727,24.4285714 14.4714286,24.4285714 C14.2142844,24.4285714 14.0000009,24.342858 13.8285714,24.1714286 C13.657142,23.9999991 13.5714286,23.7857156 13.5714286,23.5285714 C13.5714286,23.2714273 13.657142,23.0571437 13.8285714,22.8857143 L17.7142857,19 L13.8285714,15.1142857 C13.657142,14.9428563 13.5714286,14.7285727 13.5714286,14.4714286 C13.5714286,14.2142844 13.657142,14.0000009 13.8285714,13.8285714 C14.0000009,13.657142 14.2142844,13.5714286 14.4714286,13.5714286 C14.7285727,13.5714286 14.9428563,13.657142 15.1142857,13.8285714 L19,17.7142857 L22.8857143,13.8285714 C23.0571437,13.657142 23.2714273,13.5714286 23.5285714,13.5714286 C23.7857156,13.5714286 23.9999991,13.657142 24.1714286,13.8285714 Z" fill="#0F179E"></path>
            </g>
        </g>
    </g>
</svg>