<?xml version="1.0" encoding="UTF-8"?>
<svg viewBox="0 0 44 44" version="1.1" xmlns="http://www.w3.org/2000/svg" xmlns:xlink="http://www.w3.org/1999/xlink">
    <g stroke="none" stroke-width="1" fill="none" fill-rule="evenodd">
        <g transform="translate(-965.000000, -625.000000)">
            <g transform="translate(908.000000, 626.000000)">
                <g transform="translate(58.000000, 0.000000)">
                    <circle class="to_blue" stroke="#0F179E" cx="21" cy="21" r="21"></circle>
                    <g class="to_blue" transform="translate(12.600000, 11.550000)" fill="#0F179E" fill-rule="nonzero" stroke="#C8E5FE" stroke-width="0.6">
                        <path class="to_white" d="M9.32339107,19.0168228 C13.1969963,18.5883058 16.301403,15.5302532 16.7431991,11.7047656 C17.3230565,6.70280425 13.3863375,2.44490414 8.45163266,2.39036562 L8.45163266,0.14649511 C8.45163266,0.0218356378 8.29384833,-0.0443897071 8.18734391,0.0335224633 L3.50903858,3.42659748 C3.43014642,3.48503161 3.43014642,3.59800426 3.50903858,3.65643839 L8.18734391,7.04951341 C8.29384833,7.12742558 8.45163266,7.05730462 8.45163266,6.93654076 L8.45163266,4.69656586 C11.9189433,4.75110438 14.6959474,7.66501955 14.4592709,11.1476936 C14.2580959,14.1434165 11.7848266,16.5742762 8.75142288,16.7651611 C5.5365672,16.9677327 2.80295371,14.7004885 2.3138223,11.70087 C2.22309631,11.143798 1.73002028,10.7386547 1.1619967,10.7386547 C0.455911833,10.7386547 -0.0963333149,11.3580564 0.0141157148,12.0475791 C0.700477542,16.3210617 4.69636565,19.5271475 9.32339107,19.0168228 Z"></path>
                    </g>
                </g>
            </g>
        </g>
    </g>
</svg>