<svg width="182px" height="102px" viewBox="0 0 182 102" version="1.1" xmlns="http://www.w3.org/2000/svg" xmlns:xlink="http://www.w3.org/1999/xlink">
    <g id="Page-1" stroke="none" stroke-width="1" fill="none" fill-rule="evenodd">
        <g id="popup-new-text" transform="translate(-630.000000, -242.000000)">
            <g id="popup" transform="translate(560.000000, 202.000000)">
                <g id="rocket-stars" transform="translate(70.000000, 40.000000)">
                    <g id="stars">
                        <path d="M149.370066,71.5465413 L151.745603,76.1456279 C151.836871,76.3225682 151.97313,76.4668426 152.14024,76.5634792 L156.483822,79.0787536 C157.171545,79.4761887 157.171545,80.5242196 156.483822,80.9230158 L152.14024,83.4369291 C151.97313,83.5349268 151.836871,83.6792012 151.745603,83.8547804 L149.370066,88.453867 C148.993425,89.1820443 148.004904,89.1820443 147.629548,88.453867 L145.252726,83.8547804 C145.162743,83.6792012 145.025199,83.5349268 144.859374,83.4369291 L140.515792,80.9230158 C139.828069,80.5242196 139.828069,79.4761887 140.515792,79.0787536 L144.859374,76.5634792 C145.025199,76.4668426 145.162743,76.3225682 145.252726,76.1456279 L147.629548,71.5465413 C148.004904,70.818364 148.993425,70.818364 149.370066,71.5465413" id="Page-1" fill="#D0EBFF"></path>
                        <path d="M157.882207,26.8495595 L161.655204,34.0038565 C161.800163,34.2791032 162.016579,34.5035351 162.281996,34.6538621 L169.180782,38.5665999 C170.273073,39.1848463 170.273073,40.8151537 169.180782,41.4355174 L162.281996,45.3461379 C162.016579,45.4985822 161.800163,45.7230141 161.655204,45.9961435 L157.882207,53.1504405 C157.283999,54.2831865 155.713959,54.2831865 155.117793,53.1504405 L151.342754,45.9961435 C151.199837,45.7230141 150.981379,45.4985822 150.718004,45.3461379 L143.819218,41.4355174 C142.726927,40.8151537 142.726927,39.1848463 143.819218,38.5665999 L150.718004,34.6538621 C150.981379,34.5035351 151.199837,34.2791032 151.342754,34.0038565 L155.117793,26.8495595 C155.713959,25.7168135 157.283999,25.7168135 157.882207,26.8495595" id="Page-1-Copy-2" fill="#D0EBFF"></path>
                        <path d="M41.3700661,8.54654135 L43.745603,13.1456279 C43.8368709,13.3225682 43.97313,13.4668426 44.1402403,13.5634792 L48.4838221,16.0787536 C49.1715451,16.4761887 49.1715451,17.5242196 48.4838221,17.9230158 L44.1402403,20.4369291 C43.97313,20.5349268 43.8368709,20.6792012 43.745603,20.8547804 L41.3700661,25.453867 C40.9934252,26.1820443 40.0049037,26.1820443 39.6295483,25.453867 L37.2527259,20.8547804 C37.1627435,20.6792012 37.0251989,20.5349268 36.8593741,20.4369291 L32.5157923,17.9230158 C31.8280692,17.5242196 31.8280692,16.4761887 32.5157923,16.0787536 L36.8593741,13.5634792 C37.0251989,13.4668426 37.1627435,13.3225682 37.2527259,13.1456279 L39.6295483,8.54654135 C40.0049037,7.81836398 40.9934252,7.81836398 41.3700661,8.54654135" id="Page-1-Copy" fill="#D0EBFF"></path>
                        <path d="M32.9214715,45.5764868 L35.4368029,50.4311883 C35.5334417,50.6179629 35.6777194,50.770256 35.8546637,50.8722636 L40.4538546,53.5273356 C41.1820485,53.94686 41.1820485,55.05314 40.4538546,55.4741011 L35.8546637,58.1277364 C35.6777194,58.2311808 35.5334417,58.3834739 35.4368029,58.5688117 L32.9214715,63.4235132 C32.5226663,64.1921623 31.4759726,64.1921623 31.0785285,63.4235132 L28.561836,58.5688117 C28.4665583,58.3834739 28.3209195,58.2311808 28.1453363,58.1277364 L23.5461454,55.4741011 C22.8179515,55.05314 22.8179515,53.94686 23.5461454,53.5273356 L28.1453363,50.8722636 C28.3209195,50.770256 28.4665583,50.6179629 28.561836,50.4311883 L31.0785285,45.5764868 C31.4759726,44.8078377 32.5226663,44.8078377 32.9214715,45.5764868" id="Page-1-Copy-4" fill="#8A66F0" opacity="0.144474638"></path>
                        <path d="M9.37006609,29.5465413 L11.745603,34.1456279 C11.8368709,34.3225682 11.97313,34.4668426 12.1402403,34.5634792 L16.4838221,37.0787536 C17.1715451,37.4761887 17.1715451,38.5242196 16.4838221,38.9230158 L12.1402403,41.4369291 C11.97313,41.5349268 11.8368709,41.6792012 11.745603,41.8547804 L9.37006609,46.453867 C8.99342523,47.1820443 8.00490367,47.1820443 7.62954827,46.453867 L5.25272594,41.8547804 C5.16274348,41.6792012 5.02519887,41.5349268 4.85937405,41.4369291 L0.515792299,38.9230158 C-0.171930766,38.5242196 -0.171930766,37.4761887 0.515792299,37.0787536 L4.85937405,34.5634792 C5.02519887,34.4668426 5.16274348,34.3225682 5.25272594,34.1456279 L7.62954827,29.5465413 C8.00490367,28.818364 8.99342523,28.818364 9.37006609,29.5465413" id="Page-1-Copy-3" fill="#D0EBFF"></path>
                        <circle id="Oval-5" fill="#8A66F0" opacity="0.181329257" cx="13" cy="76" r="4"></circle>
                        <circle id="Oval-5-Copy" fill="#8A66F0" opacity="0.181329257" cx="178" cy="64" r="4"></circle>
                        <circle id="Oval-5-Copy-2" fill="#8A66F0" opacity="0.181329257" cx="70" cy="4" r="4"></circle>
                    </g>
                    <g id="rocket" transform="translate(43.000000, 6.000000)" fill="#8A66F0" fill-rule="nonzero">
                        <path d="M50.7168932,45.2845732 C49.9880388,44.5556277 48.8080777,44.5556277 48.0792233,45.2845732 C47.352233,46.0116544 47.352233,47.191763 48.0792233,47.9207085 C48.8080777,48.6477897 49.9880388,48.6477897 50.7168932,47.9207085 C51.4438835,47.191763 51.4438835,46.0116544 50.7168932,45.2845732 Z" id="Path"></path>
                        <path d="M74.6270008,21.3729395 C70.9840375,17.730149 65.0866877,17.7299625 61.4435379,21.3729395 C57.8100828,25.0064082 57.8098964,30.9201866 61.4440972,34.5566383 C65.0788573,38.1891748 70.9926136,38.1906663 74.6270008,34.5562654 C78.2695913,30.9136613 78.270337,25.0161029 74.6270008,21.3729395 Z M71.9904201,31.9194884 C69.8104216,34.0996815 66.261795,34.0996815 64.0806779,31.9198613 C61.9003066,29.7381767 61.9001202,26.1895368 64.0803051,24.0095301 C66.2658966,21.8239304 69.8044557,21.8235575 71.9904201,24.0095301 C74.1760116,26.1949434 74.1763845,29.7337022 71.9904201,31.9194884 Z" id="Shape"></path>
                        <path d="M95.4488316,0.55128173 C95.0791891,0.18182805 94.5747891,-0.0184260078 94.0504389,0.00133590579 C93.6248984,0.0165808106 83.4926682,0.42386444 71.4482348,4.68095705 C61.7968786,8.08866379 53.7522623,12.967598 47.5377902,19.1822493 C46.145232,20.5748054 44.7901273,22.0514909 43.4935557,23.58558 C37.3489091,19.9685852 32.4249859,21.1027308 29.3121976,22.7685661 C22.1450116,26.6042594 17.7087379,37.0189761 17.7087379,44.4682765 C17.7093025,45.2293924 18.1679678,45.9157896 18.8711165,46.2069484 C19.103931,46.3034995 19.3486027,46.3503635 19.5910158,46.3503635 C20.0809238,46.3503635 20.5621741,46.1589552 20.9222179,45.7991002 C24.7020188,42.0193048 29.3641433,42.255695 30.8871303,42.455949 L31.5462382,43.1150559 C30.2491019,46.2016786 29.2041657,49.2709861 28.4377787,52.2561643 C28.1611115,53.3364822 28.2544632,54.4796619 28.6656998,55.5253494 C26.8536238,56.3604314 25.1053506,57.5866111 23.5831164,59.1088431 C18.7384292,63.9537115 17.7546609,75.7607961 17.715137,76.2610549 C17.6718489,76.8100597 17.870974,77.350595 18.2603784,77.7399989 C18.6147759,78.0942076 19.0941441,78.2912621 19.5910158,78.2912621 C19.6403266,78.2912621 19.6898255,78.28938 19.7393245,78.2854277 C20.239584,78.246092 32.0470622,77.2623252 36.8917495,72.417645 C38.413419,70.8959776 39.6394123,69.1478952 40.4744955,67.3361983 C41.5815407,67.771525 42.7209579,67.8251645 43.7455675,67.5626133 C46.7294326,66.7964157 49.7983682,65.7518574 52.8853718,64.4545348 L53.5444796,65.1136417 C53.7445458,66.6368147 53.9809362,71.2989325 50.2013236,75.0783514 C49.6632341,75.6166283 49.5021272,76.4261139 49.7934747,77.1292616 C50.084634,77.8325975 50.7708439,78.2910739 51.5321493,78.2910739 C58.9814605,78.2910739 69.3960042,73.8548066 73.2317031,66.6876311 C74.8975407,63.5752238 76.031688,58.6513078 72.4146879,52.5064819 C73.9480264,51.2104768 75.4249023,49.8553741 76.8180251,48.4622533 C83.0326855,42.247602 87.9114385,34.2029975 91.3191502,24.5524081 C95.5764373,12.5074277 95.9835333,2.37502404 95.9987782,1.94967238 C96.0175991,1.42739323 95.8182858,0.920923619 95.4488316,0.55128173 Z M21.9167141,40.4200955 C23.0858683,34.7619773 26.4817228,28.5531605 31.0890786,26.0872501 C34.1679892,24.4396711 37.5333539,24.6011542 41.1115829,26.5598421 C38.0631621,30.5690639 35.4129916,34.8884536 33.2039828,39.4496914 C33.1759397,39.4323762 32.8371635,39.00646 32.2077927,38.8645506 C31.9490054,38.8060177 26.9691841,37.734922 21.9167141,40.4200955 Z M34.2300981,69.7558093 C31.6422247,72.343679 25.5715442,73.7085685 21.7345278,74.2658544 C22.2920028,70.4286554 23.6570825,64.358172 26.2447677,61.7704906 C27.6939768,60.3212836 29.3743066,59.2225212 31.0632939,58.603691 L37.3969024,64.9372902 C36.7780713,66.6262751 35.6794955,68.3066023 34.2300981,69.7558093 Z M42.8105453,63.916258 C42.2658686,64.0557206 41.6349921,63.8509495 41.1659753,63.3826863 C38.7311158,60.9478303 37.7785902,59.9953061 37.4797143,59.6966189 C36.9316498,59.1485551 35.5876495,57.8045568 32.6190293,54.8357528 C32.1496361,54.3654192 31.9448648,53.7347319 32.0839512,53.1909969 C32.6867845,50.8432816 33.4751919,48.4345866 34.4339285,46.002742 L49.9978697,61.5666605 C47.5656451,62.5255839 45.157323,63.3138019 42.8105453,63.916258 Z M69.9133906,64.9115056 C67.4474766,69.5186664 61.238839,72.9147042 55.5809007,74.0836684 C57.3848838,70.6889481 57.7825693,66.3674881 57.1234615,63.7470583 C56.9704476,63.1383914 56.5733267,62.8323641 56.551118,62.7964162 C61.1119861,60.5874107 65.4311939,57.9372439 69.4407979,54.8888276 C71.3994887,58.4674279 71.5607838,61.8331641 69.9133906,64.9115056 Z M74.1567502,45.8006059 C72.4607991,47.4963663 70.6346074,49.134723 68.7288033,50.6699414 C64.1474205,54.3588319 59.1049256,57.4834728 53.7251602,59.970839 L36.0297524,42.2758333 C38.5171222,36.8956994 41.6417676,31.8532119 45.3302871,27.2724003 C46.8668252,25.3652815 48.5049961,23.5389043 50.2001943,21.8438967 C55.7758852,16.2680257 62.9718672,11.830441 71.5940968,8.6361629 L87.3645032,24.4065464 C84.1705969,33.0285752 79.7330057,40.2245467 74.1567502,45.8006059 Z M88.7186668,20.4370367 L75.5636123,7.2820013 C82.7307983,5.05586878 88.9659734,4.22229245 92.078197,3.92266419 C91.7783801,7.0354479 90.9446144,13.270614 88.7186668,20.4370367 Z" id="Shape"></path>
                        <path d="M45.1043881,76.9922715 C44.3501432,76.2385648 43.1277529,76.2389509 42.3740871,76.9926575 L36.9146433,82.4529291 C36.1609775,83.2068287 36.1611705,84.4289722 36.9150294,85.1824858 C37.6692743,85.9359995 38.8916646,85.9359995 39.6453304,85.1820998 L45.1047742,79.7218282 C45.85844,78.9679286 45.8582469,77.7457851 45.1043881,76.9922715 Z" id="Path"></path>
                        <path d="M19.007825,50.8956872 C18.2543114,50.1416314 17.0323609,50.1416314 16.2782683,50.8953011 L10.8179967,56.3547731 C10.0640971,57.1084428 10.0639041,58.3308395 10.8174177,59.0848952 C11.5707383,59.8385649 12.7926888,59.8393371 13.5469744,59.0852813 L19.007246,53.6258093 C19.7611456,52.8721396 19.7613387,51.649743 19.007825,50.8956872 Z" id="Path"></path>
                        <path d="M32.0613806,79.783396 C31.3150931,79.0366345 30.1041684,79.0366345 29.3573072,79.7832047 L16.40483,92.7353568 C15.6579688,93.4821183 15.6579688,94.6930001 16.4046388,95.4397616 C17.1509263,96.186523 18.361851,96.1869055 19.1087122,95.4399528 L32.0611894,82.4878007 C32.8080506,81.7410393 32.8080506,80.5301574 32.0613806,79.783396 Z" id="Path"></path>
                        <path d="M17.1487593,79.783396 C16.4022805,79.0366345 15.1913558,79.0366345 14.4446859,79.7832047 L1.49220862,92.7353568 C0.745347444,93.4821183 0.745347444,94.6930001 1.49201741,95.4397616 C2.23830496,96.186523 3.44922965,96.1869055 4.19609083,95.4399528 L17.1485681,82.4878007 C17.8954293,81.7410393 17.8954293,80.5301574 17.1487593,79.783396 Z" id="Path"></path>
                        <path d="M16.2164654,63.9384744 C15.4699015,63.1919977 14.2588388,63.1919977 13.5120837,63.9386656 L0.560042407,76.8911059 C-0.186712671,77.637965 -0.186712671,78.8485038 0.560233638,79.5953628 C1.30698872,80.3420307 2.5178602,80.3420307 3.26461528,79.5951716 L16.2166566,66.6427313 C16.9634117,65.8958722 16.9634117,64.6853334 16.2164654,63.9384744 Z" id="Path"></path>
                        <path d="M58.1587606,37.8412394 C57.4123214,37.0949914 56.2026543,37.0949914 55.456024,37.8412394 L52.7538608,40.5434027 C52.0076127,41.2896507 52.0076127,42.4997001 52.7538608,43.2461392 C53.5002999,43.9923873 54.7101582,43.9923873 55.4565973,43.2461392 L58.1587606,40.543976 C58.9050086,39.7977279 58.9050086,38.5876786 58.1587606,37.8412394 Z" id="Path"></path>
                    </g>
                </g>
            </g>
        </g>
    </g>
</svg>