<?xml version="1.0" encoding="UTF-8"?>
<svg viewBox="0 0 44 44" version="1.1" xmlns="http://www.w3.org/2000/svg" xmlns:xlink="http://www.w3.org/1999/xlink">
    <g stroke="none" stroke-width="1" fill="none" fill-rule="evenodd">
        <g transform="translate(-907.000000, -625.000000)">
            <g transform="translate(908.000000, 626.000000)">
                <g>
                    <circle class="to_blue" stroke="#0F179E" cx="21" cy="21" r="21"></circle>
                    <g transform="translate(10.500000, 10.500000)" fill="#0F179E" fill-rule="nonzero">
                        <g>
                            <path class="to_white" d="M6.47051795,19.9656471 L5.82203951,16.9087059 C5.74681601,16.5529412 5.40571634,16.3328941 5.05164711,16.4027294 C4.70146875,16.4804706 4.47968912,16.8296471 4.55491262,17.1867294 L4.89082445,18.7692235 C2.63411946,17.1722353 1.2969569,14.6173176 1.2969569,11.7764706 C1.2969569,11.4128 1.00643855,11.1176471 0.648478448,11.1176471 C0.290518345,11.1176471 0,11.4128 0,11.7764706 C0,14.84 1.41368302,17.7177412 3.75598717,19.5716706 L1.90652664,19.6836706 C1.54856653,19.7060706 1.27620559,20.0170353 1.29825385,20.3807059 C1.31900516,20.7298824 1.60433568,21 1.94543534,21 C1.95840491,21 1.97137448,21 1.98434405,20.9986824 L5.87521474,20.7615059 C6.06457044,20.7496471 6.23836267,20.6560941 6.35379183,20.5032471 C6.46792404,20.3504 6.51072362,20.1527529 6.47051795,19.9656471 Z" id="Path"></path>
                            <path class="to_white" d="M17.2440128,1.42832941 L19.0934734,1.31632941 C19.4514335,1.29392941 19.7237944,0.982964706 19.7017461,0.619294118 C19.6809948,0.270117647 19.3956643,0 19.0545647,0 C19.0415951,0 19.0286255,0 19.0156559,0.00131764706 L15.1247853,0.238494118 C14.9354296,0.250352941 14.7616373,0.343905882 14.6462082,0.496752941 C14.532076,0.6496 14.4892764,0.847247059 14.529482,1.03435294 L15.1779605,4.09129412 C15.253184,4.44705882 15.5942837,4.66710588 15.9483529,4.59727059 C16.2985313,4.51952941 16.5203109,4.17035294 16.4450874,3.81327059 L16.1104725,2.23077647 C18.3658805,3.82776471 19.7030431,6.38268235 19.7030431,9.22352941 C19.7030431,9.5872 19.9935614,9.88235294 20.3515216,9.88235294 C20.7094817,9.88235294 21,9.5872 21,9.22352941 C21,6.16 19.586317,3.28225882 17.2440128,1.42832941 Z" id="Path"></path>
                            <path class="to_white" d="M19.069128,11.5892333 L9.71959021,2.2396955 C9.20391778,1.72402307 8.36561952,1.72402307 7.84994709,2.2396955 L2.2396955,7.84994709 C1.72402307,8.36561952 1.72402307,9.20391778 2.2396955,9.71959021 L11.5892333,19.069128 C12.1049058,19.5848005 12.943204,19.5848005 13.4588764,19.069128 L19.069128,13.4588764 C19.5848005,12.943204 19.5848005,12.1049058 19.069128,11.5892333 Z M11.5892333,17.1994849 L4.10933862,9.71959021 L9.71959021,4.10933862 L17.1994849,11.5892333 L11.5892333,17.1994849 Z" id="Shape"></path>
                        </g>
                    </g>
                </g>
            </g>
        </g>
    </g>
</svg>